HIERARCHY
ROOT SpineBase
{
  OFFSET 0.000000 0.000000 0.000000
  CHANNELS 6 Xposition Yposition Zposition Zrotation Xrotation Yrotation
  JOINT SpineMid
  {
    OFFSET 0.000000 26.814856 0.000000
    CHANNELS 3 Zrotation Xrotation Yrotation
    JOINT SpineShoulder
    {
      OFFSET -0.043475 20.049630 -0.754637
      CHANNELS 3 Zrotation Xrotation Yrotation
      JOINT Neck
      {
        OFFSET -0.031922 6.686064 -0.568087
        CHANNELS 3 Zrotation Xrotation Yrotation
        JOINT Head
        {
          OFFSET 4.675961 12.558172 1.181160
          CHANNELS 3 Zrotation Xrotation Yrotation
          End Site
          {
            OFFSET 0 0 0
          }
        }
      }
      JOINT ShoulderLeft
      {
        OFFSET -13.867713 -2.432084 -8.782626
        CHANNELS 3 Zrotation Xrotation Yrotation
        JOINT ElbowLeft
        {
          OFFSET -5.912658 -20.959285 -2.687100
          CHANNELS 3 Zrotation Xrotation Yrotation
          JOINT WristLeft
          {
            OFFSET -4.840137 -16.305979 -16.064807
            CHANNELS 3 Zrotation Xrotation Yrotation
            JOINT HandLeft
            {
              OFFSET 1.813067 -3.740286 -3.166525
              CHANNELS 3 Zrotation Xrotation Yrotation
              JOINT HandTipLeft
              {
                OFFSET 2.413545 -4.601649 -2.823801
                CHANNELS 3 Zrotation Xrotation Yrotation
                End Site
                {
                  OFFSET 0 0 0
                }
              }
              JOINT ThumbLeft
              {
                OFFSET -2.488806 -0.879046 2.184939
                CHANNELS 3 Zrotation Xrotation Yrotation
                End Site
                {
                  OFFSET 0 0 0
                }
              }
            }
          }
        }
      }
      JOINT ShoulderRight
      {
        OFFSET 13.071113 -4.638435 4.281204
        CHANNELS 3 Zrotation Xrotation Yrotation
        JOINT ElbowRight
        {
          OFFSET 3.517938 -26.095095 2.401794
          CHANNELS 3 Zrotation Xrotation Yrotation
          JOINT WristRight
          {
            OFFSET 2.228141 -6.103360 -20.674873
            CHANNELS 3 Zrotation Xrotation Yrotation
            JOINT HandRight
            {
              OFFSET 0.394372 -3.163569 -6.001422
              CHANNELS 3 Zrotation Xrotation Yrotation
              JOINT HandTipRight
              {
                OFFSET 1.900538 -3.022667 -6.471632
                CHANNELS 3 Zrotation Xrotation Yrotation
                End Site
                {
                  OFFSET 0 0 0
                }
              }
              JOINT ThumbRight
              {
                OFFSET 3.963200 1.044162 -1.310707
                CHANNELS 3 Zrotation Xrotation Yrotation
                End Site
                {
                  OFFSET 0 0 0
                }
              }
            }
          }
        }
      }
    }
  }
  JOINT HipLeft
  {
    OFFSET -7.183589 1.124693 -6.439890
    CHANNELS 3 Zrotation Xrotation Yrotation
    JOINT KneeLeft
    {
      OFFSET 9.099148 2.884118 -29.775083
      CHANNELS 3 Zrotation Xrotation Yrotation
      JOINT AnkleLeft
      {
        OFFSET -2.974206 -36.014256 -1.926027
        CHANNELS 3 Zrotation Xrotation Yrotation
        JOINT FootLeft
        {
          OFFSET 3.409640 -6.470664 -5.635977
          CHANNELS 3 Zrotation Xrotation Yrotation
          End Site
          {
            OFFSET 0 0 0
          }
        }
      }
    }
  }
  JOINT HipRight
  {
    OFFSET 6.796134 1.089076 0.330476
    CHANNELS 3 Zrotation Xrotation Yrotation
    JOINT KneeRight
    {
      OFFSET 17.140972 -0.181046 -25.420179
      CHANNELS 3 Zrotation Xrotation Yrotation
      JOINT AnkleRight
      {
        OFFSET -7.223164 -34.780978 -2.446912
        CHANNELS 3 Zrotation Xrotation Yrotation
        JOINT FootRight
        {
          OFFSET -3.632237 -4.527216 -8.959137
          CHANNELS 3 Zrotation Xrotation Yrotation
          End Site
          {
            OFFSET 0 0 0
          }
        }
      }
    }
  }
}
MOTION
Frames: 13
Frame Time: 0.033333
23.692374 40.137825 355.362400 -0.000000 0.000000 -25.840860 -0.000000 0.000000 25.840860 -0.000000 0.000000 0.000000 -0.000000 0.000000 0.000000 0.000000 0.000000 0.000000 -0.000000 0.000000 0.000000 -0.000000 0.000000 0.000000 -0.000000 0.000000 0.000000 -0.000000 0.000000 0.000000 0.000000 0.000000 0.000000 0.000000 0.000000 0.000000 -0.000000 0.000000 0.000000 -0.000000 0.000000 0.000000 -0.000000 0.000000 0.000000 -0.000000 0.000000 0.000000 0.000000 0.000000 0.000000 0.000000 0.000000 0.000000 -0.000000 0.000000 25.840860 -0.000000 0.000000 0.000000 -0.000000 0.000000 0.000000 0.000000 0.000000 0.000000 -0.000000 0.000000 25.840860 -0.000000 0.000000 0.000000 -0.000000 0.000000 0.000000 0.000000 0.000000 0.000000
23.706688 40.146985 355.371222 -0.005508 -0.017760 -25.721460 -0.002746 0.018390 25.721460 -0.000000 0.000000 0.000000 -0.000000 0.000000 0.000000 0.000000 0.000000 0.000000 -0.000000 0.000000 0.000000 -0.342617 2.050511 -0.260221 -1.340669 -7.443863 -1.093358 0.179627 5.660733 2.293991 0.000000 0.000000 0.000000 0.000000 0.000000 0.000000 -0.000000 0.000000 0.000000 -0.000000 0.000000 0.000000 -0.007055 2.091955 0.265143 0.455643 -2.068885 -1.210029 0.000000 0.000000 0.000000 0.000000 0.000000 0.000000 -0.002746 0.018390 25.721460 -0.000000 0.000000 0.000000 -0.000000 0.000000 0.000000 0.000000 0.000000 0.000000 -0.002746 0.018390 25.721460 -0.000000 0.000000 0.000000 -0.000000 0.000000 0.000000 0.000000 0.000000 0.000000
23.718626 40.155442 355.376789 -0.008757 -0.033567 -25.619590 -0.006618 0.034053 25.619590 -0.000000 0.000000 0.000000 -0.000000 0.000000 0.000000 0.000000 0.000000 0.000000 -0.000000 0.000000 0.000000 -0.602521 3.735896 -0.479890 -2.443914 -13.230479 -2.094419 0.124555 9.864507 4.175654 0.000000 0.000000 0.000000 0.000000 0.000000 0.000000 -0.337897 -1.158293 -0.190571 0.361923 0.237030 -0.249282 -0.076686 4.648581 0.902519 0.789894 -3.705340 -2.106848 0.000000 0.000000 0.000000 0.000000 0.000000 0.000000 -0.006618 0.034053 25.619590 -0.000000 0.000000 0.000000 -0.872195 -0.496447 0.498198 0.000000 0.000000 0.000000 0.091714 0.792686 26.666925 0.365890 -1.153295 -0.989607 -0.803095 0.505592 -0.044877 0.000000 0.000000 0.000000
23.728189 40.163194 355.379102 -0.009745 -0.047416 -25.535318 -0.011647 0.046985 25.535319 -0.000000 0.000000 0.000000 -0.000000 0.000000 0.000000 0.000000 0.000000 0.000000 -0.000000 0.000000 0.000000 -0.777774 5.022890 -0.661585 -3.274197 -17.356533 -2.872019 -0.071654 12.644691 5.578410 0.000000 0.000000 0.000000 0.000000 0.000000 0.000000 -0.464284 -1.557751 -0.258879 0.497009 0.285899 -0.357680 -0.125144 6.257811 1.226688 1.005143 -4.983882 -2.714929 0.000000 0.000000 0.000000 0.000000 0.000000 0.000000 -0.011647 0.046985 25.535319 -0.000000 0.000000 0.000000 -1.269596 -0.759208 0.705578 0.000000 0.000000 0.000000 0.116639 1.048597 26.921896 0.474275 -1.530050 -1.305652 -0.615389 0.046210 -0.442482 0.000000 0.000000 0.000000
23.735377 40.170243 355.378161 -0.008469 -0.059305 -25.468690 -0.017856 0.057183 25.468695 -0.000000 0.000000 0.000000 -0.000000 0.000000 0.000000 0.000000 0.000000 0.000000 -0.000000 0.000000 0.000000 -0.867567 5.888182 -0.807240 -3.798689 -19.873745 -3.331827 -0.326966 14.082560 6.446882 0.000000 0.000000 0.000000 0.000000 0.000000 0.000000 -0.561569 -1.837116 -0.308126 0.601967 0.287687 -0.454275 -0.169053 7.474797 1.476192 1.102513 -5.957726 -3.051449 0.000000 0.000000 0.000000 0.000000 0.000000 0.000000 -0.017856 0.057183 25.468695 -0.000000 0.000000 0.000000 -1.641409 -1.031223 0.885197 0.000000 0.000000 0.000000 0.129033 1.211022 27.072216 0.541114 -1.772635 -1.505982 -0.701196 0.070510 -0.534673 0.000000 0.000000 0.000000
23.740190 40.176588 355.373966 -0.004928 -0.069228 -25.419735 -0.025265 0.064642 25.419747 -0.000000 0.000000 0.000000 -0.000000 0.000000 0.000000 0.000000 0.000000 0.000000 -0.000000 0.000000 0.000000 -0.872128 6.317572 -0.917788 -3.998611 -20.838288 -3.418655 -0.586764 14.256880 6.743083 0.000000 0.000000 0.000000 0.000000 0.000000 0.000000 -0.629395 -1.996319 -0.337759 0.677077 0.242159 -0.538538 -0.203166 8.339199 1.655046 1.082861 -6.664189 -3.128223 0.000000 0.000000 0.000000 0.000000 0.000000 0.000000 -0.025265 0.064642 25.419747 -0.000000 0.000000 0.000000 -1.987807 -1.312225 1.037102 0.000000 0.000000 0.000000 0.129441 1.280070 27.118238 0.569943 -1.880804 -1.592066 -0.730440 0.101900 -0.599793 0.000000 0.000000 0.000000
23.740362 40.173614 355.356680 -0.003720 -0.062230 -25.383124 -0.023315 0.057818 25.383134 -0.000000 0.000000 0.000000 -0.000000 0.000000 0.000000 0.000000 0.000000 0.000000 -0.000000 0.000000 0.000000 -0.949730 6.748613 -0.955917 -3.284366 -19.345184 -2.610262 -1.979129 8.707813 5.099401 0.000000 0.000000 0.000000 0.000000 0.000000 0.000000 -0.646411 -1.778261 -0.309072 0.706676 -0.179751 -0.686535 -0.238411 9.334952 1.841768 1.113143 -7.408565 -3.255773 0.000000 0.000000 0.000000 0.000000 0.000000 0.000000 -0.023315 0.057818 25.383134 -0.000000 0.000000 0.000000 -2.314121 -1.333263 1.313613 0.000000 0.000000 0.000000 0.130000 1.255425 27.066709 0.565012 -1.875924 -1.574257 -1.904462 1.450494 0.695653 0.000000 0.000000 0.000000
23.737586 40.177206 355.347386 0.000121 -0.074308 -25.319717 -0.031889 0.067118 25.319735 -0.000000 0.000000 0.000000 -0.000000 0.000000 0.000000 0.000000 0.000000 0.000000 -0.000000 0.000000 0.000000 -0.878044 6.250634 -0.894066 -2.770917 -17.019863 -1.974947 -1.623038 7.679993 4.327017 0.000000 0.000000 0.000000 0.000000 0.000000 0.000000 -0.638127 -1.644546 -0.289447 0.723660 -0.380104 -0.819939 -0.367325 9.554077 2.119218 0.745208 -7.567627 -2.563941 0.000000 0.000000 0.000000 0.000000 0.000000 0.000000 -0.031889 0.067118 25.319735 -0.000000 0.000000 0.000000 -2.615285 -1.246947 1.627664 0.000000 0.000000 0.000000 0.110034 1.153860 26.842795 0.502822 -1.702561 -1.424694 -0.241963 -0.225976 -1.081464 0.000000 0.000000 0.000000
23.739097 40.184439 355.338192 0.017606 -0.084617 -25.338249 -0.052125 0.068942 25.338293 -0.000000 0.000000 0.000000 0.829991 0.003016 -0.079425 0.000000 0.000000 0.000000 -0.000000 0.000000 0.000000 -0.866300 5.182572 -0.617756 -1.561139 -13.052966 -1.492639 -2.919813 5.204556 4.207143 0.000000 0.000000 0.000000 0.000000 0.000000 0.000000 -0.559554 -1.918853 -0.319299 0.647391 0.033584 -0.747938 -0.328073 9.109176 1.994398 0.598876 -7.412502 -2.333347 0.000000 0.000000 0.000000 0.000000 0.000000 0.000000 -0.052125 0.068942 25.338293 -0.000000 0.000000 0.000000 -2.914863 -1.930013 1.515675 0.000000 0.000000 0.000000 0.061374 0.921105 26.532478 0.384425 -1.340046 -1.117658 1.112402 -1.536368 -2.386890 0.000000 0.000000 0.000000
23.758566 40.193100 355.314799 0.072055 -0.067670 -25.434585 -0.094134 0.030165 25.434652 -0.000000 0.000000 0.000000 0.807262 -0.122657 -0.029474 0.000000 0.000000 0.000000 -0.000000 0.000000 0.000000 -0.470143 4.044450 -0.696155 -2.057969 -11.867053 -1.299092 -1.026015 9.065226 4.783335 0.000000 0.000000 0.000000 0.000000 0.000000 0.000000 -0.345657 -1.160313 -0.191643 0.335964 -0.719683 -0.499705 0.033155 8.506768 1.215952 -0.680614 -8.324036 -0.670043 0.000000 0.000000 0.000000 0.000000 0.000000 0.000000 -0.094134 0.030165 25.434652 -0.000000 0.000000 0.000000 -3.312752 -2.610566 1.486965 0.000000 0.000000 0.000000 -0.094134 0.030165 25.434652 -0.000000 0.000000 0.000000 2.729482 -2.941377 -3.194628 0.000000 0.000000 0.000000
23.757147 40.205712 355.306061 0.082800 -0.078328 -25.528456 -0.108473 0.034998 25.528546 -0.000000 0.000000 0.000000 0.848634 -0.225779 0.005937 0.000000 0.000000 0.000000 -0.000000 0.000000 0.000000 0.184596 2.641702 -0.949270 -2.064137 -10.309193 -1.405278 -0.640556 10.232886 5.135251 0.000000 0.000000 0.000000 0.000000 0.000000 0.000000 -0.900953 -1.520795 -0.299868 0.999374 -0.109583 -0.701959 0.063545 7.849598 1.158710 -0.360369 -7.066756 -0.678172 0.000000 0.000000 0.000000 0.000000 0.000000 0.000000 -0.108473 0.034998 25.528546 -0.000000 0.000000 0.000000 -4.314236 -2.878355 2.226673 0.000000 0.000000 0.000000 -0.108473 0.034998 25.528546 -0.000000 0.000000 0.000000 3.126854 -3.489774 -3.587124 0.000000 0.000000 0.000000
23.732912 40.222231 355.305461 0.061417 -0.100042 -25.584315 -0.098597 0.063711 25.584423 -0.000000 0.000000 0.000000 0.909031 -0.275409 0.019292 0.000000 0.000000 0.000000 -0.000000 0.000000 0.000000 1.189141 1.652710 -1.660757 -2.775603 -10.933601 -1.669540 -0.146186 14.189604 6.609377 0.000000 0.000000 0.000000 0.000000 0.000000 0.000000 -1.003648 -1.741669 -0.342375 1.063014 0.901490 -0.231237 0.669969 3.984624 -0.507790 -1.152048 -3.521767 1.694349 0.000000 0.000000 0.000000 0.000000 0.000000 0.000000 -0.098597 0.063711 25.584423 -0.000000 0.000000 0.000000 -3.829373 -3.834685 1.245201 0.000000 0.000000 0.000000 -0.058106 0.384518 26.369306 -0.178768 -0.269442 -0.785462 2.249551 -2.693807 -2.386036 0.000000 0.000000 0.000000
23.711862 40.239465 355.314252 0.029408 -0.126488 -25.682817 -0.081321 0.101246 25.682921 -0.000000 0.000000 0.000000 0.966654 -0.338442 0.038082 0.000000 0.000000 0.000000 -0.000000 0.000000 0.000000 1.512009 2.914216 -2.343530 -4.082783 -15.231679 -1.817249 0.354491 15.905614 6.843941 0.000000 0.000000 0.000000 0.000000 0.000000 0.000000 -0.779360 -1.376230 -0.266585 0.773174 1.379715 0.247915 0.934835 0.996298 -1.628755 -1.851081 -1.621538 3.315593 0.000000 0.000000 0.000000 0.000000 0.000000 0.000000 -0.081321 0.101246 25.682921 -0.000000 0.000000 0.000000 -3.318127 -4.399508 0.466749 0.000000 0.000000 0.000000 -0.029993 0.525609 26.776415 0.581402 -1.009087 -1.010630 2.340740 -3.255974 -3.464346 0.000000 0.000000 0.000000
